<?xml version="1.0" encoding="UTF-8" standalone="no"?>
<!-- Created with Inkscape (http://www.inkscape.org/) -->

<svg
   width="300mm"
   height="300mm"
   viewBox="0 0 300 300"
   version="1.1"
   id="svg5"
   inkscape:version="1.2.2 (b0a8486541, 2022-12-01)"
   sodipodi:docname="clock_on.svg"
   inkscape:export-filename="output_base.png"
   inkscape:export-xdpi="65.024002"
   inkscape:export-ydpi="65.024002"
   xmlns:inkscape="http://www.inkscape.org/namespaces/inkscape"
   xmlns:sodipodi="http://sodipodi.sourceforge.net/DTD/sodipodi-0.dtd"
   xmlns="http://www.w3.org/2000/svg"
   xmlns:svg="http://www.w3.org/2000/svg">
  <sodipodi:namedview
     id="namedview7"
     pagecolor="#ffffff"
     bordercolor="#000000"
     borderopacity="0.25"
     inkscape:showpageshadow="2"
     inkscape:pageopacity="0"
     inkscape:pagecheckerboard="true"
     inkscape:deskcolor="#d1d1d1"
     inkscape:document-units="mm"
     showgrid="false"
     inkscape:zoom="0.53093056"
     inkscape:cx="595.18142"
     inkscape:cy="566.92913"
     inkscape:window-width="1536"
     inkscape:window-height="779"
     inkscape:window-x="0"
     inkscape:window-y="0"
     inkscape:window-maximized="1"
     inkscape:current-layer="layer1" />
  <defs
     id="defs2" />
  <g
     inkscape:label="Layer 1"
     inkscape:groupmode="layer"
     id="layer1">
    <circle
       style="fill:#ffd42a;fill-opacity:1;stroke:#000000;stroke-width:1"
       id="path2382"
       cx="150"
       cy="150"
       r="145" />
    <path
       id="path349-3-5"
       style="fill:#1a1a1a;stroke-width:43.7675"
       d="M 150.0004,19.393584 A 132.00195,130.60652 0 0 0 17.998154,150.00039 132.00195,130.60652 0 0 0 150.0004,280.60642 132.00195,130.60652 0 0 0 282.00185,150.00039 132.00195,130.60652 0 0 0 150.0004,19.393584 Z m 0,14.5117 A 117.33507,116.09468 0 0 1 267.33511,150.00039 117.33507,116.09468 0 0 1 150.0004,266.09472 117.33507,116.09468 0 0 1 32.664901,150.00039 117.33507,116.09468 0 0 1 150.0004,33.905284 Z" />
    <ellipse
       style="fill:#808080;stroke-width:43.7675"
       id="path349-3-3"
       cx="150"
       cy="150"
       rx="117.33507"
       ry="116.09468"
       sodipodi:insensitive="true" />
    <path
       id="rect342"
       style="fill:#ffffff;stroke:#000000;stroke-width:0.830613"
       d="m 207.52543,86.750113 v 0.312126 h -2.33267 V 201.82009 H 104.53792 V 87.062239 H 93.470378 V 86.755281 H 53.90225 V 98.709077 H 93.198043 V 213.20441 h 6.509163 v 0.0455 H 209.69171 v -0.0455 h 6.84041 V 98.713727 h 29.56563 V 86.750113 Z" />
  </g>
</svg>
