<?xml version="1.0" encoding="UTF-8" standalone="no"?>
<!-- Created with Inkscape (http://www.inkscape.org/) -->

<svg
   width="400mm"
   height="50mm"
   viewBox="0 0 400 50"
   version="1.1"
   id="svg342"
   inkscape:version="1.2.2 (b0a8486541, 2022-12-01)"
   sodipodi:docname="clock_wave.svg"
   inkscape:export-filename="clock_wave.png"
   inkscape:export-xdpi="96"
   inkscape:export-ydpi="96"
   xmlns:inkscape="http://www.inkscape.org/namespaces/inkscape"
   xmlns:sodipodi="http://sodipodi.sourceforge.net/DTD/sodipodi-0.dtd"
   xmlns="http://www.w3.org/2000/svg"
   xmlns:svg="http://www.w3.org/2000/svg">
  <sodipodi:namedview
     id="namedview344"
     pagecolor="#ffffff"
     bordercolor="#000000"
     borderopacity="0.25"
     inkscape:showpageshadow="2"
     inkscape:pageopacity="0.0"
     inkscape:pagecheckerboard="true"
     inkscape:deskcolor="#d1d1d1"
     inkscape:document-units="mm"
     showgrid="false"
     inkscape:zoom="0.66013542"
     inkscape:cx="814.9843"
     inkscape:cy="93.920123"
     inkscape:window-width="1536"
     inkscape:window-height="779"
     inkscape:window-x="0"
     inkscape:window-y="0"
     inkscape:window-maximized="1"
     inkscape:current-layer="layer1" />
  <defs
     id="defs339" />
  <g
     inkscape:label="Layer 1"
     inkscape:groupmode="layer"
     id="layer1">
    <path
       id="rect528"
       style="fill:#ffffff;stroke:#000000;stroke-width:1"
       d="M 0 0 L 0 50.000049 L 64.000228 50.000049 L 64.000228 7.4998006 L 113.99976 7.4998006 L 113.99976 50.000049 L 177.00005 50.000049 L 177.00005 7.4998006 L 227.0001 7.4998006 L 227.0001 50.000049 L 291.99975 50.000049 L 291.99975 7.6698161 L 341.9998 7.6698161 L 341.9998 50.000049 L 399.99987 50.000049 L 399.99987 42.500248 L 349.99983 42.500248 L 349.99983 0 L 284.00024 0 L 284.00024 42.500248 L 234.00019 42.500248 L 234.00019 0 L 169.99996 0 L 169.99996 42.500248 L 119.99991 42.500248 L 119.99991 0 L 57.000138 0 L 57.000138 42.500248 L 7.0000895 42.500248 L 7.0000895 0 L 0 0 z " />
  </g>
</svg>
