<?xml version="1.0" encoding="UTF-8" standalone="no"?>
<!-- Created with Inkscape (http://www.inkscape.org/) -->

<svg
   width="100mm"
   height="100mm"
   viewBox="0 0 100 100"
   version="1.1"
   id="svg5"
   inkscape:version="1.2.2 (b0a8486541, 2022-12-01)"
   sodipodi:docname="icon_fit_to_screen.svg"
   inkscape:export-filename="icon_fit_to_screen.png"
   inkscape:export-xdpi="96"
   inkscape:export-ydpi="96"
   xmlns:inkscape="http://www.inkscape.org/namespaces/inkscape"
   xmlns:sodipodi="http://sodipodi.sourceforge.net/DTD/sodipodi-0.dtd"
   xmlns="http://www.w3.org/2000/svg"
   xmlns:svg="http://www.w3.org/2000/svg">
  <sodipodi:namedview
     id="namedview7"
     pagecolor="#ffffff"
     bordercolor="#000000"
     borderopacity="0.25"
     inkscape:showpageshadow="2"
     inkscape:pageopacity="0.0"
     inkscape:pagecheckerboard="0"
     inkscape:deskcolor="#d1d1d1"
     inkscape:document-units="mm"
     showgrid="false"
     inkscape:zoom="1.5927917"
     inkscape:cx="184.89549"
     inkscape:cy="188.97638"
     inkscape:window-width="1536"
     inkscape:window-height="779"
     inkscape:window-x="0"
     inkscape:window-y="0"
     inkscape:window-maximized="1"
     inkscape:current-layer="layer1" />
  <defs
     id="defs2">
    <filter
       inkscape:label="Button"
       inkscape:menu="Bevels"
       inkscape:menu-tooltip="Soft bevel, slightly depressed middle"
       style="color-interpolation-filters:sRGB;"
       id="filter494"
       x="-0.27932297"
       y="-0.27932297"
       width="1.5586459"
       height="1.5586459">
      <feGaussianBlur
         stdDeviation="2.3"
         in="SourceAlpha"
         result="result0"
         id="feGaussianBlur468" />
      <feMorphology
         in="SourceAlpha"
         radius="6.6"
         result="result1"
         id="feMorphology470" />
      <feGaussianBlur
         stdDeviation="8.9"
         in="result1"
         id="feGaussianBlur472" />
      <feColorMatrix
         values="1 0 0 0 0 0 1 0 0 0 0 0 1 0 0 0 0 0 0.3 0"
         result="result91"
         id="feColorMatrix474" />
      <feComposite
         in="result0"
         operator="out"
         result="result2"
         in2="result91"
         id="feComposite476" />
      <feGaussianBlur
         stdDeviation="1.7"
         result="result4"
         id="feGaussianBlur478" />
      <feDiffuseLighting
         surfaceScale="10"
         id="feDiffuseLighting482">
        <feDistantLight
           azimuth="225"
           elevation="45"
           id="feDistantLight480" />
      </feDiffuseLighting>
      <feBlend
         in2="SourceGraphic"
         mode="multiply"
         id="feBlend484" />
      <feComposite
         in2="SourceAlpha"
         operator="in"
         result="result3"
         id="feComposite486" />
      <feSpecularLighting
         in="result4"
         surfaceScale="5"
         specularExponent="17.9"
         id="feSpecularLighting490">
        <feDistantLight
           azimuth="225"
           elevation="45"
           id="feDistantLight488" />
      </feSpecularLighting>
      <feComposite
         in2="result3"
         operator="atop"
         id="feComposite492" />
    </filter>
  </defs>
  <g
     inkscape:label="Layer 1"
     inkscape:groupmode="layer"
     id="layer1">
    <path
       id="rect234"
       style="opacity:0.83;fill:#2ca63a;fill-opacity:0.997103;stroke:#000000;stroke-width:0.999631;stroke-linejoin:bevel;filter:url(#filter494)"
       d="M 15.310693 5.4999227 C 9.8755132 5.4999227 5.4999227 10.042713 5.4999227 15.685347 L 5.4999227 37.340873 C 5.7763975 37.308131 6.0573237 37.289197 6.3432821 37.289197 L 20.333126 37.289197 L 20.333126 27.123409 C 20.333126 23.361653 23.250357 20.333126 26.873812 20.333126 L 37.289197 20.333126 L 37.289197 7.2176473 C 37.289197 6.622518 37.369486 6.0492549 37.506755 5.4999227 L 15.310693 5.4999227 z M 62.493343 5.4999227 C 62.630612 6.0492549 62.710901 6.622518 62.710901 7.2176473 L 62.710901 20.333126 L 73.126286 20.333126 C 76.749739 20.333126 79.666972 23.361653 79.666972 27.123409 L 79.666972 37.289197 L 93.656299 37.289197 C 93.942257 37.289197 94.2237 37.308131 94.500175 37.340873 L 94.500175 15.685347 C 94.500175 10.042713 90.124586 5.4999227 84.689404 5.4999227 L 62.493343 5.4999227 z M 5.4999227 62.659224 L 5.4999227 84.31475 C 5.4999227 89.957387 9.8755132 94.500175 15.310693 94.500175 L 37.289197 94.500175 L 37.289197 79.666972 L 26.873812 79.666972 C 23.250357 79.666972 20.333126 76.638445 20.333126 72.876689 L 20.333126 62.710901 L 6.3432821 62.710901 C 6.0573237 62.710901 5.7763975 62.691967 5.4999227 62.659224 z M 94.500175 62.659224 C 94.2237 62.691967 93.942257 62.710901 93.656299 62.710901 L 79.666972 62.710901 L 79.666972 72.876689 C 79.666972 76.638445 76.749739 79.666972 73.126286 79.666972 L 62.710901 79.666972 L 62.710901 94.500175 L 84.689404 94.500175 C 90.124586 94.500175 94.500175 89.957387 94.500175 84.31475 L 94.500175 62.659224 z " />
  </g>
</svg>
