<?xml version="1.0" encoding="UTF-8" standalone="no"?>
<!-- Created with Inkscape (http://www.inkscape.org/) -->

<svg
   width="300mm"
   height="300mm"
   viewBox="0 0 300 300"
   version="1.1"
   id="svg5"
   inkscape:version="1.2.2 (b0a8486541, 2022-12-01)"
   sodipodi:docname="toggle_base.svg"
   inkscape:export-filename="toggle_base.png"
   inkscape:export-xdpi="65.024002"
   inkscape:export-ydpi="65.024002"
   xmlns:inkscape="http://www.inkscape.org/namespaces/inkscape"
   xmlns:sodipodi="http://sodipodi.sourceforge.net/DTD/sodipodi-0.dtd"
   xmlns="http://www.w3.org/2000/svg"
   xmlns:svg="http://www.w3.org/2000/svg">
  <sodipodi:namedview
     id="namedview7"
     pagecolor="#ffffff"
     bordercolor="#000000"
     borderopacity="0.25"
     inkscape:showpageshadow="2"
     inkscape:pageopacity="0"
     inkscape:pagecheckerboard="true"
     inkscape:deskcolor="#d1d1d1"
     inkscape:document-units="mm"
     showgrid="false"
     inkscape:zoom="0.5095679"
     inkscape:cx="782.03513"
     inkscape:cy="610.32102"
     inkscape:window-width="1536"
     inkscape:window-height="779"
     inkscape:window-x="0"
     inkscape:window-y="0"
     inkscape:window-maximized="1"
     inkscape:current-layer="layer1" />
  <defs
     id="defs2" />
  <g
     inkscape:label="Layer 1"
     inkscape:groupmode="layer"
     id="layer1">
    <path
       id="rect234-6"
       style="fill:#ffffff;stroke-width:12.2121"
       d="M 150.00015 9.9999064 A 140 140 0 0 0 9.9999064 150.00015 A 140 140 0 0 0 150.00015 289.99987 A 140 140 0 0 0 289.59111 160.61449 L 301.62345 160.61449 L 301.62345 139.38581 L 289.59473 139.38581 A 140 140 0 0 0 150.00015 9.9999064 z M 150.00015 59.999955 A 90 90 0 0 1 239.99982 150.00015 A 90 90 0 0 1 150.00015 239.99982 A 90 90 0 0 1 59.999955 150.00015 A 90 90 0 0 1 150.00015 59.999955 z " />
    <path
       id="path349-3-5"
       style="fill:#1a1a1a;stroke-width:30"
       d="M 150.00015 59.999955 A 90 90 0 0 0 59.999955 150.00015 A 90 90 0 0 0 150.00015 239.99982 A 90 90 0 0 0 239.99982 150.00015 A 90 90 0 0 0 150.00015 59.999955 z M 150.00015 69.999862 A 80 80 0 0 1 229.99991 150.00015 A 80 80 0 0 1 150.00015 229.99991 A 80 80 0 0 1 69.999862 150.00015 A 80 80 0 0 1 150.00015 69.999862 z " />
    <circle
       style="fill:#808080;stroke-width:30"
       id="path349-3-3"
       cx="150"
       cy="150"
       r="80" />
  </g>
</svg>
